<svg width="12" height="12" viewBox="0 0 12 12" fill="none" xmlns="http://www.w3.org/2000/svg">
    <path fill-rule="evenodd" clip-rule="evenodd"
          d="M9.68648 10.6093C9.94102 10.8638 10.3537 10.8638 10.6082 10.6093C10.8629 10.3547 10.8629 9.94198 10.6082 9.68745L6.92105 6.00018L10.6083 2.31292C10.8629 2.05837 10.8629 1.64566 10.6083 1.39111C10.3537 1.13656 9.94102 1.13656 9.68648 1.39111L5.99921 5.07834L2.31195 1.39112C2.05739 1.13657 1.64469 1.13657 1.39013 1.39112C1.13558 1.64567 1.13558 2.05839 1.39013 2.31294L5.07737 6.00018L1.39014 9.68745C1.13559 9.94198 1.13559 10.3547 1.39014 10.6093C1.64469 10.8638 2.0574 10.8638 2.31195 10.6093L5.99921 6.92201L9.68648 10.6093Z"
          fill="#3F434A"/>
</svg>
