<svg width="20" height="20" viewBox="0 0 20 18" fill="none" xmlns="http://www.w3.org/2000/svg">
    <path d="M5.08267 14.834C3.99924 14.7274 3.18762 14.402 2.6433 13.8577C1.66699 12.8814 1.66699 11.31 1.66699 8.16732V7.75065C1.66699 4.60795 1.66699 3.03661 2.6433 2.06029C3.61962 1.08398 5.19096 1.08398 8.33366 1.08398H11.667C14.8097 1.08398 16.3811 1.08398 17.3573 2.06029C18.3337 3.03661 18.3337 4.60795 18.3337 7.75065V8.16732C18.3337 11.31 18.3337 12.8814 17.3573 13.8577C16.3811 14.834 14.8097 14.834 11.667 14.834C11.1999 14.8444 10.8279 14.8799 10.4625 14.9632C9.46383 15.1931 8.53908 15.7041 7.62522 16.1497C6.32307 16.7847 5.67199 17.1022 5.2634 16.8049C4.48173 16.2227 5.24578 14.4189 5.41699 13.584" stroke="#3F434A" stroke-width="1.5" stroke-linecap="round" stroke-linejoin="round"/>
</svg>
