<svg width="20" height="20" viewBox="0 0 20 20" fill="none" xmlns="http://www.w3.org/2000/svg">
    <path fill-rule="evenodd" clip-rule="evenodd" d="M8.05073 3.70503C8.182 3.57375 8.36005 3.5 8.5457 3.5H11.4457C11.6314 3.5 11.8094 3.57375 11.9407 3.70503C12.072 3.8363 12.1457 4.01435 12.1457 4.2V4.9L7.8457 4.89999V4.2C7.8457 4.01435 7.91945 3.8363 8.05073 3.70503ZM6.3457 4.89999V4.2C6.3457 3.61652 6.57749 3.05694 6.99007 2.64437C7.40265 2.23179 7.96222 2 8.5457 2H11.4457C12.0292 2 12.5888 2.23179 13.0013 2.64437C13.4139 3.05694 13.6457 3.61652 13.6457 4.2V4.9L16.5207 4.89999C16.9349 4.89999 17.2707 5.23578 17.2707 5.64999C17.2707 6.06421 16.9349 6.39999 16.5207 6.39999H15.8207V15.8C15.8207 16.3835 15.5889 16.9431 15.1763 17.3556C14.7638 17.7682 14.2042 18 13.6207 18H6.3707C5.78722 18 5.22764 17.7682 4.81507 17.3556C4.40249 16.9431 4.1707 16.3835 4.1707 15.8V6.39999H3.4707C3.05649 6.39999 2.7207 6.06421 2.7207 5.64999C2.7207 5.23578 3.05649 4.89999 3.4707 4.89999H6.3457ZM5.6707 15.8V6.4H14.3207V15.8C14.3207 15.9857 14.247 16.1637 14.1157 16.295C13.9844 16.4263 13.8064 16.5 13.6207 16.5H6.3707C6.18505 16.5 6.007 16.4263 5.87573 16.295C5.74445 16.1637 5.6707 15.9857 5.6707 15.8ZM8.54572 8.52502C8.95993 8.52502 9.29572 8.86081 9.29572 9.27502V13.625C9.29572 14.0392 8.95993 14.375 8.54572 14.375C8.1315 14.375 7.79572 14.0392 7.79572 13.625V9.27502C7.79572 8.86081 8.1315 8.52502 8.54572 8.52502ZM12.1957 9.27502C12.1957 8.86081 11.8599 8.52502 11.4457 8.52502C11.0315 8.52502 10.6957 8.86081 10.6957 9.27502V13.625C10.6957 14.0392 11.0315 14.375 11.4457 14.375C11.8599 14.375 12.1957 14.0392 12.1957 13.625V9.27502Z" fill="#595F69"/>
</svg>
