<svg width="20" height="20" viewBox="0 0 18 18" fill="none" xmlns="http://www.w3.org/2000/svg">
    <path fill-rule="evenodd" clip-rule="evenodd" d="M0.25 0.873372C0.25 0.413131 0.6231 0.0400391 1.08333 0.0400391H1.86538C3.01254 0.0400391 4.0125 0.820781 4.29072 1.9337L4.29457 1.94907L4.6818 3.79344H15.682C15.9799 3.79892 16.2983 3.81448 16.5839 3.88982C16.9024 3.97384 17.217 4.14143 17.4508 4.46318C17.7382 4.85851 17.7682 5.29896 17.7428 5.66897C17.7192 6.01214 17.6353 6.42848 17.5442 6.88094L17.5345 6.92921C17.1989 8.59616 16.8603 10.2252 16.0496 11.4086C15.6253 12.0278 15.0702 12.5332 14.3317 12.8758C13.6028 13.2141 12.7387 13.3738 11.7193 13.3738H6.02419C5.53802 13.3881 5.09391 13.7167 4.91579 14.2067H13.5833L13.582 14.2088L13.5813 14.21H13.5833C14.6188 14.21 15.4583 15.0494 15.4583 16.085C15.4583 17.1205 14.6188 17.96 13.5833 17.96C12.5478 17.96 11.7083 17.1205 11.7083 16.085C11.7083 16.0134 11.7123 15.9428 11.7202 15.8733H9.61317C9.621 15.9428 9.625 16.0134 9.625 16.085C9.625 17.1205 8.7855 17.96 7.75 17.96C6.71447 17.96 5.875 17.1205 5.875 16.085C5.875 16.0134 5.87901 15.9428 5.88681 15.8733H4.34286C3.66153 15.8733 3.16667 15.308 3.16667 14.6829C3.16667 13.5562 3.78381 12.5502 4.7116 12.0467L2.67053 2.32519C2.57343 1.96101 2.24338 1.70671 1.86538 1.70671H1.08333C0.6231 1.70671 0.25 1.33361 0.25 0.873372ZM7.75 15.46C7.40483 15.46 7.125 15.7397 7.125 16.085C7.125 16.4302 7.40483 16.71 7.75 16.71C8.09517 16.71 8.375 16.4302 8.375 16.085C8.375 15.7397 8.09517 15.46 7.75 15.46ZM13.5833 15.46C13.2382 15.46 12.9583 15.7397 12.9583 16.085C12.9583 16.4302 13.2382 16.71 13.5833 16.71C13.9285 16.71 14.2083 16.4302 14.2083 16.085C14.2083 15.7397 13.9285 15.46 13.5833 15.46Z" fill="#141B34"/>
</svg>
