<svg width="20" height="20" viewBox="0 0 20 20" fill="none" xmlns="http://www.w3.org/2000/svg">
    <path d="M6.66699 14.166H13.3337" stroke="#3F434A" stroke-width="1.5" stroke-linecap="round" stroke-linejoin="round"/>
    <path d="M6.66699 10.834H10.0003" stroke="#3F434A" stroke-width="1.5" stroke-linecap="round" stroke-linejoin="round"/>
    <path d="M10.833 2.08268V2.49935C10.833 4.85637 10.833 6.03488 11.5653 6.76712C12.2975 7.49935 13.476 7.49935 15.833 7.49935H16.2497M16.6663 8.8801V11.666C16.6663 14.8087 16.6663 16.3801 15.69 17.3563C14.7138 18.3327 13.1423 18.3327 9.99967 18.3327C6.85697 18.3327 5.28563 18.3327 4.30932 17.3563C3.33301 16.3801 3.33301 14.8087 3.33301 11.666V7.87922C3.33301 5.17503 3.33301 3.82294 4.0714 2.90712C4.22057 2.72211 4.3891 2.55358 4.57412 2.40441C5.48993 1.66602 6.84202 1.66602 9.54617 1.66602C10.1342 1.66602 10.4281 1.66602 10.6973 1.76102C10.7533 1.78078 10.8082 1.80352 10.8618 1.82914C11.1193 1.95231 11.3272 2.16018 11.7429 2.57592L15.69 6.52304C16.1718 7.00476 16.4126 7.24562 16.5395 7.5519C16.6663 7.85818 16.6663 8.19881 16.6663 8.8801Z" stroke="#3F434A" stroke-width="1.5" stroke-linecap="round" stroke-linejoin="round"/>
</svg>
