<svg width="20" height="20" viewBox="0 0 20 20" fill="none" xmlns="http://www.w3.org/2000/svg">
    <path d="M1.66699 5L7.42784 8.26414C9.55166 9.4675 10.449 9.4675 12.5728 8.26414L18.3337 5" stroke="#3F434A" stroke-width="1.5" stroke-linecap="round" stroke-linejoin="round"/>
    <path d="M1.68013 11.229C1.73461 13.7837 1.76185 15.0609 2.70446 16.0072C3.64706 16.9534 4.95893 16.9863 7.58268 17.0522C9.19974 17.0929 10.8009 17.0929 12.418 17.0522C15.0417 16.9863 16.3536 16.9534 17.2962 16.0072C18.2388 15.0609 18.2661 13.7837 18.3205 11.229C18.3381 10.4076 18.3381 9.5911 18.3205 8.76968C18.2661 6.21507 18.2388 4.93776 17.2962 3.99157C16.3536 3.04537 15.0417 3.01242 12.418 2.94649C10.8009 2.90586 9.19974 2.90586 7.58268 2.94648C4.95893 3.0124 3.64706 3.04536 2.70445 3.99156C1.76184 4.93775 1.73461 6.21506 1.68013 8.76968C1.66261 9.5911 1.66262 10.4076 1.68013 11.229Z" stroke="#3F434A" stroke-width="1.5" stroke-linecap="round" stroke-linejoin="round"/>
</svg>
