<svg width="14" height="16" viewBox="0 0 14 16" fill="none" xmlns="http://www.w3.org/2000/svg">
    <path fill-rule="evenodd" clip-rule="evenodd"
          d="M9.65683 9.42642C10.2309 9.69389 10.6113 10.2207 10.7983 11.0073C10.9852 11.7939 10.9117 12.546 10.5766 13.2634C10.5059 13.4151 10.3894 13.5207 10.2274 13.5801C10.0657 13.6395 9.90927 13.6341 9.75856 13.5638L6.02777 11.8258L3.61191 15.8452C3.56768 15.9097 3.50932 15.9554 3.43696 15.9821C3.36464 16.0086 3.29336 16.0056 3.22409 15.9733L3.21523 15.9692C3.05869 15.8963 3.00261 15.7744 3.04721 15.6034L4.3669 11.0521L0.853538 9.41528C0.702793 9.345 0.598224 9.22884 0.539667 9.0668C0.481199 8.9047 0.487372 8.74774 0.558144 8.59611C0.893094 7.87848 1.42215 7.33872 2.14543 6.97616C2.86876 6.61366 3.51731 6.56608 4.09129 6.83348L6.18211 2.35391C5.88064 2.21347 5.67142 1.98109 5.55454 1.65683C5.43765 1.33253 5.45001 1.01875 5.59159 0.715397C5.73322 0.411994 5.96584 0.200896 6.28964 0.081894C6.6134 -0.0371161 6.92599 -0.0264307 7.22755 0.114052L12.7932 2.7069C13.0946 2.84734 13.304 3.07984 13.4206 3.40398C13.5375 3.72834 13.5254 4.04215 13.3838 4.34553C13.2422 4.64875 13.0093 4.85998 12.6855 4.97892C12.362 5.09804 12.0491 5.08718 11.7477 4.94675L9.65683 9.42642ZM4.96962 7.59584C5.04603 7.5677 5.10308 7.51303 5.14096 7.43178L6.96147 3.5277C6.99938 3.44639 7.00462 3.36741 6.97704 3.29093C6.94951 3.2144 6.89528 3.15738 6.81454 3.11973C6.73385 3.0821 6.65524 3.07729 6.57894 3.10529C6.50269 3.13325 6.44555 3.18813 6.40763 3.26944L4.58713 7.17352C4.54924 7.25477 4.54398 7.3337 4.57153 7.4102C4.59907 7.48677 4.65331 7.54384 4.734 7.58146C4.81474 7.61911 4.89331 7.62394 4.96962 7.59584Z"
          fill="#3F434A"/>
</svg>
