<svg width="20" height="20" viewBox="0 0 20 20" fill="none" xmlns="http://www.w3.org/2000/svg">
    <path d="M3.33301 8.33268C3.33301 5.18998 3.33301 3.61864 4.30932 2.64232C5.28563 1.66602 6.85697 1.66602 9.99967 1.66602H11.2497C14.3923 1.66602 15.9638 1.66602 16.94 2.64232C17.9163 3.61864 17.9163 5.18998 17.9163 8.33268V11.666C17.9163 14.8087 17.9163 16.3801 16.94 17.3563C15.9638 18.3327 14.3923 18.3327 11.2497 18.3327H9.99967C6.85697 18.3327 5.28563 18.3327 4.30932 17.3563C3.33301 16.3801 3.33301 14.8087 3.33301 11.666V8.33268Z" stroke="#3F434A" stroke-width="1.5" stroke-linecap="round" stroke-linejoin="round"/>
    <path d="M8.16661 9.97842C7.8111 9.3585 7.63944 8.85234 7.53594 8.33917C7.38286 7.58034 7.73317 6.83905 8.31352 6.36605C8.55883 6.16614 8.84 6.23444 8.985 6.49465L9.31242 7.08209C9.572 7.54771 9.70175 7.78053 9.676 8.02735C9.65025 8.27417 9.47525 8.47517 9.12525 8.87725L8.16661 9.97842ZM8.16661 9.97842C8.88616 11.2331 10.0154 12.363 11.2716 13.0834M11.2716 13.0834C11.8915 13.4389 12.3977 13.6106 12.9108 13.7141C13.6697 13.8672 14.4109 13.5168 14.8839 12.9365C15.0838 12.6912 15.0156 12.41 14.7553 12.265L14.1679 11.9376C13.7022 11.678 13.4695 11.5483 13.2227 11.574C12.9758 11.5998 12.7748 11.7748 12.3727 12.1248L11.2716 13.0834Z" stroke="#3F434A" stroke-width="1.5" stroke-linecap="round" stroke-linejoin="round"/>
    <path d="M4.16634 5H2.08301M4.16634 10H2.08301M4.16634 15H2.08301" stroke="#3F434A" stroke-width="1.5" stroke-linecap="round" stroke-linejoin="round"/>
</svg>
