<svg width="20" height="20" viewBox="0 0 20 20" fill="none" xmlns="http://www.w3.org/2000/svg">
    <g opacity="0.9">
        <path fill-rule="evenodd" clip-rule="evenodd" d="M1.75 2.33008C1.33579 2.33008 1 2.66586 1 3.08008C1 3.49429 1.33579 3.83008 1.75 3.83008H3.77148L4.30451 6.49326C4.30772 6.51354 4.31173 6.53354 4.31652 6.55325L5.4169 12.051L5.41704 12.0517C5.51172 12.5275 5.77064 12.9549 6.14854 13.2591C6.52457 13.5618 6.99456 13.7234 7.47705 13.716H13.8703C14.3528 13.7234 14.8228 13.5618 15.1988 13.2591C15.5769 12.9547 15.8359 12.5271 15.9305 12.051L15.9305 12.051L15.9316 12.0454L16.9861 6.51588C17.0279 6.29632 16.9697 6.06952 16.8272 5.8973C16.6847 5.72508 16.4729 5.62538 16.2493 5.62538H5.66056L5.12166 2.93289C5.0515 2.58237 4.74371 2.33008 4.38624 2.33008H1.75ZM6.88794 11.7577L5.96078 7.12538H15.3428L14.4588 11.761C14.4324 11.8909 14.3615 12.0075 14.2582 12.0907C14.1544 12.1743 14.0244 12.2187 13.8911 12.2161L13.8767 12.216H7.47065L7.45628 12.2161C7.32297 12.2187 7.19301 12.1743 7.08914 12.0907C6.98528 12.0071 6.91413 11.8896 6.88816 11.7588L6.88794 11.7577ZM7.02249 16.3526C7.07288 16.3526 7.11372 16.3117 7.11372 16.2613C7.11372 16.211 7.07288 16.1701 7.02249 16.1701C6.97211 16.1701 6.93127 16.211 6.93127 16.2613C6.93127 16.3117 6.97211 16.3526 7.02249 16.3526ZM5.61372 16.2613C5.61372 15.4833 6.24445 14.8526 7.02249 14.8526C7.80054 14.8526 8.43127 15.4833 8.43127 16.2613C8.43127 17.0394 7.80054 17.6701 7.02249 17.6701C6.24445 17.6701 5.61372 17.0394 5.61372 16.2613ZM14.2722 16.3526C14.3225 16.3526 14.3634 16.3117 14.3634 16.2613C14.3634 16.211 14.3225 16.1701 14.2722 16.1701C14.2218 16.1701 14.1809 16.211 14.1809 16.2613C14.1809 16.3117 14.2218 16.3526 14.2722 16.3526ZM12.8634 16.2613C12.8634 15.4833 13.4941 14.8526 14.2722 14.8526C15.0502 14.8526 15.6809 15.4833 15.6809 16.2613C15.6809 17.0394 15.0502 17.6701 14.2722 17.6701C13.4941 17.6701 12.8634 17.0394 12.8634 16.2613Z" fill="#595F69"/>
    </g>
</svg>
