<svg width="20" height="20" viewBox="0 0 20 20" fill="none" xmlns="http://www.w3.org/2000/svg">
    <path d="M18.333 11.666V8.33268C18.333 5.18998 18.333 3.61864 17.3567 2.64232C16.3804 1.66602 14.809 1.66602 11.6663 1.66602H9.99967C6.85697 1.66602 5.28563 1.66602 4.30932 2.64232C3.33301 3.61864 3.33301 5.18998 3.33301 8.33268V11.666C3.33301 14.8087 3.33301 16.3801 4.30932 17.3563C5.28563 18.3327 6.85697 18.3327 9.99967 18.3327H11.6663C14.809 18.3327 16.3804 18.3327 17.3567 17.3563C18.333 16.3801 18.333 14.8087 18.333 11.666Z" stroke="#3F434A" stroke-width="1.5" stroke-linecap="round" stroke-linejoin="round"/>
    <path d="M4.16699 5H1.66699M4.16699 10H1.66699M4.16699 15H1.66699" stroke="#3F434A" stroke-width="1.5" stroke-linecap="round" stroke-linejoin="round"/>
    <path d="M14.5833 5.83301H11.25M12.9167 9.16634H11.25" stroke="#3F434A" stroke-width="1.5" stroke-linecap="round" stroke-linejoin="round"/>
    <path d="M7.5 18.3337V1.66699" stroke="#3F434A" stroke-width="1.5" stroke-linecap="round" stroke-linejoin="round"/>
</svg>
