<svg width="20" height="20" viewBox="0 0 20 20" fill="none" xmlns="http://www.w3.org/2000/svg">
    <path d="M6.66504 13.3337H9.99833M6.66504 9.16699H13.3317" stroke="#3F434A" stroke-width="1.5" stroke-linecap="round"/>
    <path d="M6.24968 2.91699C4.95318 2.95588 4.18019 3.10019 3.64532 3.63555C2.91309 4.36847 2.91309 5.54808 2.91309 7.90729V13.329C2.91309 15.6882 2.91309 16.8678 3.64532 17.6007C4.37755 18.3337 5.55607 18.3337 7.91309 18.3337H12.0798C14.4368 18.3337 15.6153 18.3337 16.3475 17.6007C17.0798 16.8678 17.0798 15.6882 17.0798 13.329V7.90729C17.0798 5.54808 17.0798 4.36847 16.3475 3.63556C15.8127 3.10019 15.0397 2.95588 13.7432 2.91699" stroke="#3F434A" stroke-width="1.5"/>
    <path d="M6.24707 3.12533C6.24707 2.31991 6.9 1.66699 7.7054 1.66699H12.2887C13.0942 1.66699 13.7471 2.31991 13.7471 3.12533C13.7471 3.93074 13.0942 4.58366 12.2887 4.58366H7.7054C6.9 4.58366 6.24707 3.93074 6.24707 3.12533Z" stroke="#3F434A" stroke-width="1.5" stroke-linejoin="round"/>
</svg>
